<svg width="20" height="20" viewBox="0 0 20 20" fill="none" xmlns="http://www.w3.org/2000/svg">
<path d="M10 17C9.028 17 8.11833 16.816 7.271 16.448C6.42367 16.08 5.684 15.58 5.052 14.948C4.42 14.316 3.92 13.5763 3.552 12.729C3.184 11.8817 3 10.972 3 10C3 9.028 3.184 8.11833 3.552 7.271C3.92 6.42367 4.42 5.684 5.052 5.052C5.684 4.42 6.42367 3.92 7.271 3.552C8.11833 3.184 9.028 3 10 3C11.1253 3 12.1637 3.243 13.115 3.729C14.0663 4.215 14.8613 4.87467 15.5 5.708V3H17V8H12V6.5H14.229C13.729 5.87467 13.1143 5.385 12.385 5.031C11.6563 4.677 10.8613 4.5 10 4.5C8.486 4.5 7.191 5.03833 6.115 6.115C5.03833 7.191 4.5 8.486 4.5 10C4.5 11.514 5.03833 12.809 6.115 13.885C7.191 14.9617 8.486 15.5 10 15.5C11.514 15.5 12.809 14.9617 13.885 13.885C14.9617 12.809 15.5 11.514 15.5 10H17C17 11.9447 16.3193 13.5973 14.958 14.958C13.5973 16.3193 11.9447 17 10 17ZM12.083 12.833L9.25 10V6H10.75V9.375L13.146 11.771L12.083 12.833Z" fill="#6C757D"/>
</svg>
